<svg xmlns="http://www.w3.org/2000/svg" xmlns:xlink="http://www.w3.org/1999/xlink" id="processonSvg1000" viewBox="443.0 3.0 782.0 795.0" width="782.0" height="795.0"><defs id="ProcessOnDefs1001"><marker id="ProcessOnMarker1011" markerUnits="userSpaceOnUse" orient="auto" markerWidth="16.23606797749979" markerHeight="10.550836550532098" viewBox="-1.0 -1.3763819204711736 16.23606797749979 10.550836550532098" refX="-1.0" refY="3.8990363547948754"><path id="ProcessOnPath1012" d="M12.0 3.8990363547948754L0.0 7.798072709589751V0.0Z" stroke="#323232" stroke-width="2.0" fill="#323232" transform="matrix(1.0,0.0,0.0,1.0,0.0,0.0)"/></marker><marker id="ProcessOnMarker1019" markerUnits="userSpaceOnUse" orient="auto" markerWidth="16.23606797749979" markerHeight="10.550836550532098" viewBox="-1.0 -1.3763819204711736 16.23606797749979 10.550836550532098" refX="-1.0" refY="3.8990363547948754"><path id="ProcessOnPath1020" d="M12.0 3.8990363547948754L0.0 7.798072709589751V0.0Z" stroke="#323232" stroke-width="2.0" fill="#323232" transform="matrix(1.0,0.0,0.0,1.0,0.0,0.0)"/></marker><marker id="ProcessOnMarker1026" markerUnits="userSpaceOnUse" orient="auto" markerWidth="16.23606797749979" markerHeight="10.550836550532098" viewBox="-1.0 -1.3763819204711736 16.23606797749979 10.550836550532098" refX="-1.0" refY="3.8990363547948754"><path id="ProcessOnPath1027" d="M12.0 3.8990363547948754L0.0 7.798072709589751V0.0Z" stroke="#323232" stroke-width="2.0" fill="#323232" transform="matrix(1.0,0.0,0.0,1.0,0.0,0.0)"/></marker><marker id="ProcessOnMarker1037" markerUnits="userSpaceOnUse" orient="auto" markerWidth="16.23606797749979" markerHeight="10.550836550532098" viewBox="-1.0 -1.3763819204711736 16.23606797749979 10.550836550532098" refX="-1.0" refY="3.8990363547948754"><path id="ProcessOnPath1038" d="M12.0 3.8990363547948754L0.0 7.798072709589751V0.0Z" stroke="#323232" stroke-width="2.0" fill="#323232" transform="matrix(1.0,0.0,0.0,1.0,0.0,0.0)"/></marker><marker id="ProcessOnMarker1044" markerUnits="userSpaceOnUse" orient="auto" markerWidth="16.23606797749979" markerHeight="10.550836550532098" viewBox="-1.0 -1.3763819204711736 16.23606797749979 10.550836550532098" refX="-1.0" refY="3.8990363547948754"><path id="ProcessOnPath1045" d="M12.0 3.8990363547948754L0.0 7.798072709589751V0.0Z" stroke="#323232" stroke-width="2.0" fill="#323232" transform="matrix(1.0,0.0,0.0,1.0,0.0,0.0)"/></marker><marker id="ProcessOnMarker1056" markerUnits="userSpaceOnUse" orient="auto" markerWidth="16.23606797749979" markerHeight="10.550836550532098" viewBox="-1.0 -1.3763819204711736 16.23606797749979 10.550836550532098" refX="-1.0" refY="3.8990363547948754"><path id="ProcessOnPath1057" d="M12.0 3.8990363547948754L0.0 7.798072709589751V0.0Z" stroke="#323232" stroke-width="2.0" fill="#323232" transform="matrix(1.0,0.0,0.0,1.0,0.0,0.0)"/></marker><marker id="ProcessOnMarker1081" markerUnits="userSpaceOnUse" orient="auto" markerWidth="16.23606797749979" markerHeight="10.550836550532098" viewBox="-1.0 -1.3763819204711736 16.23606797749979 10.550836550532098" refX="-1.0" refY="3.8990363547948754"><path id="ProcessOnPath1082" d="M12.0 3.8990363547948754L0.0 7.798072709589751V0.0Z" stroke="#323232" stroke-width="2.0" fill="#323232" transform="matrix(1.0,0.0,0.0,1.0,0.0,0.0)"/></marker><marker id="ProcessOnMarker1089" markerUnits="userSpaceOnUse" orient="auto" markerWidth="16.23606797749979" markerHeight="10.550836550532098" viewBox="-1.0 -1.3763819204711736 16.23606797749979 10.550836550532098" refX="-1.0" refY="3.8990363547948754"><path id="ProcessOnPath1090" d="M12.0 3.8990363547948754L0.0 7.798072709589751V0.0Z" stroke="#323232" stroke-width="2.0" fill="#323232" transform="matrix(1.0,0.0,0.0,1.0,0.0,0.0)"/></marker><marker id="ProcessOnMarker1101" markerUnits="userSpaceOnUse" orient="auto" markerWidth="16.23606797749979" markerHeight="10.550836550532098" viewBox="-1.0 -1.3763819204711736 16.23606797749979 10.550836550532098" refX="-1.0" refY="3.8990363547948754"><path id="ProcessOnPath1102" d="M12.0 3.8990363547948754L0.0 7.798072709589751V0.0Z" stroke="#323232" stroke-width="2.0" fill="#323232" transform="matrix(1.0,0.0,0.0,1.0,0.0,0.0)"/></marker><marker id="ProcessOnMarker1108" markerUnits="userSpaceOnUse" orient="auto" markerWidth="16.23606797749979" markerHeight="10.550836550532098" viewBox="-1.0 -1.3763819204711736 16.23606797749979 10.550836550532098" refX="-1.0" refY="3.8990363547948754"><path id="ProcessOnPath1109" d="M12.0 3.8990363547948754L0.0 7.798072709589751V0.0Z" stroke="#323232" stroke-width="2.0" fill="#323232" transform="matrix(1.0,0.0,0.0,1.0,0.0,0.0)"/></marker><marker id="ProcessOnMarker1120" markerUnits="userSpaceOnUse" orient="auto" markerWidth="16.23606797749979" markerHeight="10.550836550532098" viewBox="-1.0 -1.3763819204711736 16.23606797749979 10.550836550532098" refX="-1.0" refY="3.8990363547948754"><path id="ProcessOnPath1121" d="M12.0 3.8990363547948754L0.0 7.798072709589751V0.0Z" stroke="#323232" stroke-width="2.0" fill="#323232" transform="matrix(1.0,0.0,0.0,1.0,0.0,0.0)"/></marker><marker id="ProcessOnMarker1129" markerUnits="userSpaceOnUse" orient="auto" markerWidth="16.23606797749979" markerHeight="10.550836550532098" viewBox="-1.0 -1.3763819204711736 16.23606797749979 10.550836550532098" refX="-1.0" refY="3.8990363547948754"><path id="ProcessOnPath1130" d="M12.0 3.8990363547948754L0.0 7.798072709589751V0.0Z" stroke="#323232" stroke-width="2.0" fill="#323232" transform="matrix(1.0,0.0,0.0,1.0,0.0,0.0)"/></marker><marker id="ProcessOnMarker1140" markerUnits="userSpaceOnUse" orient="auto" markerWidth="16.23606797749979" markerHeight="10.550836550532098" viewBox="-1.0 -1.3763819204711736 16.23606797749979 10.550836550532098" refX="-1.0" refY="3.8990363547948754"><path id="ProcessOnPath1141" d="M12.0 3.8990363547948754L0.0 7.798072709589751V0.0Z" stroke="#323232" stroke-width="2.0" fill="#323232" transform="matrix(1.0,0.0,0.0,1.0,0.0,0.0)"/></marker><marker id="ProcessOnMarker1149" markerUnits="userSpaceOnUse" orient="auto" markerWidth="16.23606797749979" markerHeight="10.550836550532098" viewBox="-1.0 -1.3763819204711736 16.23606797749979 10.550836550532098" refX="-1.0" refY="3.8990363547948754"><path id="ProcessOnPath1150" d="M12.0 3.8990363547948754L0.0 7.798072709589751V0.0Z" stroke="#323232" stroke-width="2.0" fill="#323232" transform="matrix(1.0,0.0,0.0,1.0,0.0,0.0)"/></marker><marker id="ProcessOnMarker1169" markerUnits="userSpaceOnUse" orient="auto" markerWidth="16.23606797749979" markerHeight="10.550836550532098" viewBox="-1.0 -1.3763819204711736 16.23606797749979 10.550836550532098" refX="-1.0" refY="3.8990363547948754"><path id="ProcessOnPath1170" d="M12.0 3.8990363547948754L0.0 7.798072709589751V0.0Z" stroke="#323232" stroke-width="2.0" fill="#323232" transform="matrix(1.0,0.0,0.0,1.0,0.0,0.0)"/></marker></defs><g id="ProcessOnG1002"><path id="ProcessOnPath1003" d="M443.0 3.0H1225.0V798.0H443.0V3.0Z" fill="none"/><g id="ProcessOnG1004"><g id="ProcessOnG1005" transform="matrix(1.0,0.0,0.0,1.0,508.0,23.0)" opacity="1.0"><path id="ProcessOnPath1006" d="M12.333333333333334 0.0L87.66666666666667 0.0C104.11111111111111 0.0 104.11111111111111 37.0 87.66666666666667 37.0L12.333333333333334 37.0C-4.111111111111112 37.0 -4.111111111111112 0.0 12.333333333333334 0.0Z" stroke="#323232" stroke-width="2.0" stroke-dasharray="none" fill="#ffffed"/><g id="ProcessOnG1007" transform="matrix(1.0,0.0,0.0,1.0,10.0,10.375)"><text id="ProcessOnText1008" fill="#323232" font-size="13" x="39.0" y="13.325" font-family="Arial" font-weight="normal" font-style="normal" text-decoration="none" family="Arial" text-anchor="middle" size="13">浏览器请求</text></g></g><g id="ProcessOnG1009"><path id="ProcessOnPath1010" d="M558.0 60.0L558.0 78.0L558.0 78.0L558.0 80.76393202250021" stroke="#323232" stroke-width="2.0" stroke-dasharray="none" fill="none" marker-end="url(#ProcessOnMarker1011)"/></g><g id="ProcessOnG1013" transform="matrix(1.0,0.0,0.0,1.0,508.0,96.0)" opacity="1.0"><path id="ProcessOnPath1014" d="M0.0 36.5L50.0 0.0L100.0 36.5L50.0 73.0L0.0 36.5Z" stroke="#323232" stroke-width="2.0" stroke-dasharray="none" fill="#ffffed"/><g id="ProcessOnG1015" transform="matrix(1.0,0.0,0.0,1.0,10.0,28.375)"><text id="ProcessOnText1016" fill="#323232" font-size="13" x="39.0" y="13.325" font-family="Arial" font-weight="normal" font-style="normal" text-decoration="none" family="Arial" text-anchor="middle" size="13">是否有缓存?</text></g></g><g id="ProcessOnG1017"><path id="ProcessOnPath1018" d="M608.0 132.5L663.0 132.5L663.0 174.0139320225002" stroke="#323232" stroke-width="2.0" stroke-dasharray="none" fill="none" marker-end="url(#ProcessOnMarker1019)"/><g id="ProcessOnG1021" transform="matrix(1.0,0.0,0.0,1.0,656.2569660112501,124.375)"><path id="ProcessOnPath1022" d="M0 0H30.0V16.25H0Z" fill="#fff" transform="matrix(1.0,0.0,0.0,1.0,-15.0,0.0)"/><text id="ProcessOnText1023" fill="#323232" font-size="13" x="0.0" y="13.325" font-family="Arial" font-weight="normal" font-style="normal" text-decoration="none" family="Arial" text-anchor="middle" size="13">有缓存</text></g></g><g id="ProcessOnG1024"><path id="ProcessOnPath1025" d="M508.0 132.5L478.0 132.5L478.0 502.0L776.6389320225002 502.0" stroke="#323232" stroke-width="2.0" stroke-dasharray="none" fill="none" marker-end="url(#ProcessOnMarker1026)"/><g id="ProcessOnG1028" transform="matrix(1.0,0.0,0.0,1.0,478.0,443.4444660112501)"><path id="ProcessOnPath1029" d="M0 0H30.0V16.25H0Z" fill="#fff" transform="matrix(1.0,0.0,0.0,1.0,-15.0,0.0)"/><text id="ProcessOnText1030" fill="#323232" font-size="13" x="0.0" y="13.325" font-family="Arial" font-weight="normal" font-style="normal" text-decoration="none" family="Arial" text-anchor="middle" size="13">无缓存</text></g></g><g id="ProcessOnG1031" transform="matrix(1.0,0.0,0.0,1.0,618.0,189.25)" opacity="1.0"><path id="ProcessOnPath1032" d="M0.0 35.0L45.0 0.0L90.0 35.0L45.0 70.0L0.0 35.0Z" stroke="#323232" stroke-width="2.0" stroke-dasharray="none" fill="#ffffed"/><g id="ProcessOnG1033" transform="matrix(1.0,0.0,0.0,1.0,10.0,26.875)"><text id="ProcessOnText1034" fill="#323232" font-size="13" x="34.0" y="13.325" font-family="Arial" font-weight="normal" font-style="normal" text-decoration="none" family="Arial" text-anchor="middle" size="13">是否过期?</text></g></g><g id="ProcessOnG1035"><path id="ProcessOnPath1036" d="M663.0 259.25L663.0 296.75L666.0 296.75L666.0 319.0139320225002" stroke="#323232" stroke-width="2.0" stroke-dasharray="none" fill="none" marker-end="url(#ProcessOnMarker1037)"/><g id="ProcessOnG1039" transform="matrix(1.0,0.0,0.0,1.0,663.0,282.50696601125014)"><path id="ProcessOnPath1040" d="M0 0H10.0V16.25H0Z" fill="#fff" transform="matrix(1.0,0.0,0.0,1.0,-5.0,0.0)"/><text id="ProcessOnText1041" fill="#323232" font-size="13" x="0.0" y="13.325" font-family="Arial" font-weight="normal" font-style="normal" text-decoration="none" family="Arial" text-anchor="middle" size="13">否</text></g></g><g id="ProcessOnG1042"><path id="ProcessOnPath1043" d="M708.0 224.25L734.5 224.25L734.5 224.25L745.7639320225002 224.25" stroke="#323232" stroke-width="2.0" stroke-dasharray="none" fill="none" marker-end="url(#ProcessOnMarker1044)"/><g id="ProcessOnG1046" transform="matrix(1.0,0.0,0.0,1.0,726.8819660112501,216.125)"><path id="ProcessOnPath1047" d="M0 0H10.0V16.25H0Z" fill="#fff" transform="matrix(1.0,0.0,0.0,1.0,-5.0,0.0)"/><text id="ProcessOnText1048" fill="#323232" font-size="13" x="0.0" y="13.325" font-family="Arial" font-weight="normal" font-style="normal" text-decoration="none" family="Arial" text-anchor="middle" size="13">是</text></g></g><g id="ProcessOnG1049" transform="matrix(1.0,0.0,0.0,1.0,761.0,178.75)" opacity="1.0"><path id="ProcessOnPath1050" d="M0.0 45.5L93.5 0.0L187.0 45.5L93.5 91.0L0.0 45.5Z" stroke="#323232" stroke-width="2.0" stroke-dasharray="none" fill="#ffffed"/><g id="ProcessOnG1051" transform="matrix(1.0,0.0,0.0,1.0,10.0,29.25)"><text id="ProcessOnText1052" fill="#323232" font-size="13" x="82.5" y="13.325" font-family="Arial" font-weight="normal" font-style="normal" text-decoration="none" family="Arial" text-anchor="middle" size="13">上一次请求的响应</text><text id="ProcessOnText1053" fill="#323232" font-size="13" x="82.5" y="29.575" font-family="Arial" font-weight="normal" font-style="normal" text-decoration="none" family="Arial" text-anchor="middle" size="13">是否有Etag？</text></g></g><g id="ProcessOnG1054"><path id="ProcessOnPath1055" d="M948.0 224.25L973.75 224.25L973.75 224.25L984.2639320225002 224.25" stroke="#323232" stroke-width="2.0" stroke-dasharray="none" fill="none" marker-end="url(#ProcessOnMarker1056)"/><g id="ProcessOnG1058" transform="matrix(1.0,0.0,0.0,1.0,966.1319660112501,216.125)"><path id="ProcessOnPath1059" d="M0 0H10.0V16.25H0Z" fill="#fff" transform="matrix(1.0,0.0,0.0,1.0,-5.0,0.0)"/><text id="ProcessOnText1060" fill="#323232" font-size="13" x="0.0" y="13.325" font-family="Arial" font-weight="normal" font-style="normal" text-decoration="none" family="Arial" text-anchor="middle" size="13">是</text></g></g><g id="ProcessOnG1061" transform="matrix(1.0,0.0,0.0,1.0,999.5,206.0)" opacity="1.0"><path id="ProcessOnPath1062" d="M0.0 0.0L119.0 0.0L119.0 36.5L0.0 36.5Z" stroke="#323232" stroke-width="2.0" stroke-dasharray="none" fill="#ffffed"/><g id="ProcessOnG1063" transform="matrix(1.0,0.0,0.0,1.0,10.0,2.0)"><text id="ProcessOnText1064" fill="#323232" font-size="13" x="48.5" y="13.325" font-family="Arial" font-weight="normal" font-style="normal" text-decoration="none" family="Arial" text-anchor="middle" size="13">请求头携带</text><text id="ProcessOnText1065" fill="#323232" font-size="13" x="48.5" y="29.575" font-family="Arial" font-weight="normal" font-style="normal" text-decoration="none" family="Arial" text-anchor="middle" size="13">If-None-Match</text></g></g><g id="ProcessOnG1066" transform="matrix(1.0,0.0,0.0,1.0,611.0,334.25)" opacity="1.0"><path id="ProcessOnPath1067" d="M0.0 0.0L110.0 0.0L110.0 35.0L0.0 35.0Z" stroke="#323232" stroke-width="2.0" stroke-dasharray="none" fill="#ffffed"/><g id="ProcessOnG1068" transform="matrix(1.0,0.0,0.0,1.0,10.0,9.375)"><text id="ProcessOnText1069" fill="#323232" font-size="13" x="44.0" y="13.325" font-family="Arial" font-weight="normal" font-style="normal" text-decoration="none" family="Arial" text-anchor="middle" size="13">从缓存读取</text></g></g><g id="ProcessOnG1070" transform="matrix(1.0,0.0,0.0,1.0,801.75,749.0)" opacity="1.0"><path id="ProcessOnPath1071" d="M9.666666666666666 0.0L95.83333333333333 0.0C108.72222222222223 0.0 108.72222222222223 29.0 95.83333333333333 29.0L9.666666666666666 29.0C-3.222222222222222 29.0 -3.222222222222222 0.0 9.666666666666666 0.0Z" stroke="#323232" stroke-width="2.0" stroke-dasharray="none" fill="#ffffed"/><g id="ProcessOnG1072" transform="matrix(1.0,0.0,0.0,1.0,10.0,6.375)"><text id="ProcessOnText1073" fill="#323232" font-size="13" x="41.75" y="13.325" font-family="Arial" font-weight="normal" font-style="normal" text-decoration="none" family="Arial" text-anchor="middle" size="13">呈现页面</text></g></g><g id="ProcessOnG1074" transform="matrix(1.0,0.0,0.0,1.0,801.25,603.6875)" opacity="1.0"><path id="ProcessOnPath1075" d="M0.0 0.0L106.5 0.0L106.5 50.0L0.0 50.0Z" stroke="#323232" stroke-width="2.0" stroke-dasharray="none" fill="#ffffed"/><g id="ProcessOnG1076" transform="matrix(1.0,0.0,0.0,1.0,10.0,8.75)"><text id="ProcessOnText1077" fill="#323232" font-size="13" x="42.25" y="13.325" font-family="Arial" font-weight="normal" font-style="normal" text-decoration="none" family="Arial" text-anchor="middle" size="13">请求响应，</text><text id="ProcessOnText1078" fill="#323232" font-size="13" x="42.25" y="29.575" font-family="Arial" font-weight="normal" font-style="normal" text-decoration="none" family="Arial" text-anchor="middle" size="13">缓存协商。</text></g></g><g id="ProcessOnG1079"><path id="ProcessOnPath1080" d="M854.5 653.6875L854.5 701.34375L854.5 701.34375L854.5 733.7639320225002" stroke="#323232" stroke-width="2.0" stroke-dasharray="none" fill="none" marker-end="url(#ProcessOnMarker1081)"/></g><g id="ProcessOnG1083" transform="matrix(1.0,0.0,0.0,1.0,791.875,484.0)" opacity="1.0"><path id="ProcessOnPath1084" d="M0.0 0.0L125.25 0.0L125.25 36.0L0.0 36.0Z" stroke="#323232" stroke-width="2.0" stroke-dasharray="none" fill="#ffffed"/><g id="ProcessOnG1085" transform="matrix(1.0,0.0,0.0,1.0,10.0,9.875)"><text id="ProcessOnText1086" fill="#323232" font-size="13" x="51.625" y="13.325" font-family="Arial" font-weight="normal" font-style="normal" text-decoration="none" family="Arial" text-anchor="middle" size="13">向Web服务器请求</text></g></g><g id="ProcessOnG1087"><path id="ProcessOnPath1088" d="M854.5 520.0L854.5 561.84375L854.5 561.84375L854.5 588.4514320225002" stroke="#323232" stroke-width="2.0" stroke-dasharray="none" fill="none" marker-end="url(#ProcessOnMarker1089)"/></g><g id="ProcessOnG1091"><path id="ProcessOnPath1092" d="M854.5 269.75L854.5 282.625L854.5 282.625L854.5 295.5" stroke="#323232" stroke-width="2.0" stroke-dasharray="none" fill="none"/></g><g id="ProcessOnG1093" transform="matrix(1.0,0.0,0.0,1.0,766.0,295.5)" opacity="1.0"><path id="ProcessOnPath1094" d="M0.0 56.25L88.5 0.0L177.0 56.25L88.5 112.5L0.0 56.25Z" stroke="#323232" stroke-width="2.0" stroke-dasharray="none" fill="#ffffed"/><g id="ProcessOnG1095" transform="matrix(1.0,0.0,0.0,1.0,10.0,31.875)"><text id="ProcessOnText1096" fill="#323232" font-size="13" x="77.5" y="13.325" font-family="Arial" font-weight="normal" font-style="normal" text-decoration="none" family="Arial" text-anchor="middle" size="13">上一次请求的响应</text><text id="ProcessOnText1097" fill="#323232" font-size="13" x="77.5" y="29.575" font-family="Arial" font-weight="normal" font-style="normal" text-decoration="none" family="Arial" text-anchor="middle" size="13">是否有</text><text id="ProcessOnText1098" fill="#323232" font-size="13" x="77.5" y="45.825" font-family="Arial" font-weight="normal" font-style="normal" text-decoration="none" family="Arial" text-anchor="middle" size="13">Last-Modified?</text></g></g><g id="ProcessOnG1099"><path id="ProcessOnPath1100" d="M943.0 351.75L971.25 351.75L971.25 351.75L984.2639320225002 351.75" stroke="#323232" stroke-width="2.0" stroke-dasharray="none" fill="none" marker-end="url(#ProcessOnMarker1101)"/><g id="ProcessOnG1103" transform="matrix(1.0,0.0,0.0,1.0,963.6319660112501,343.625)"><path id="ProcessOnPath1104" d="M0 0H10.0V16.25H0Z" fill="#fff" transform="matrix(1.0,0.0,0.0,1.0,-5.0,0.0)"/><text id="ProcessOnText1105" fill="#323232" font-size="13" x="0.0" y="13.325" font-family="Arial" font-weight="normal" font-style="normal" text-decoration="none" family="Arial" text-anchor="middle" size="13">是</text></g></g><g id="ProcessOnG1106"><path id="ProcessOnPath1107" d="M854.5 408.0L854.5 446.0L854.5 446.0L854.5 468.7639320225002" stroke="#323232" stroke-width="2.0" stroke-dasharray="none" fill="none" marker-end="url(#ProcessOnMarker1108)"/><g id="ProcessOnG1110" transform="matrix(1.0,0.0,0.0,1.0,854.5,430.25696601125014)"><path id="ProcessOnPath1111" d="M0 0H40.0V16.25H0Z" fill="#fff" transform="matrix(1.0,0.0,0.0,1.0,-20.0,0.0)"/><text id="ProcessOnText1112" fill="#323232" font-size="13" x="0.0" y="13.325" font-family="Arial" font-weight="normal" font-style="normal" text-decoration="none" family="Arial" text-anchor="middle" size="13">以上全否</text></g></g><g id="ProcessOnG1113" transform="matrix(1.0,0.0,0.0,1.0,999.5,330.75)" opacity="1.0"><path id="ProcessOnPath1114" d="M0.0 0.0L119.0 0.0L119.0 42.0L0.0 42.0Z" stroke="#323232" stroke-width="2.0" stroke-dasharray="none" fill="#ffffed"/><g id="ProcessOnG1115" transform="matrix(1.0,0.0,0.0,1.0,10.0,4.75)"><text id="ProcessOnText1116" fill="#323232" font-size="13" x="48.5" y="13.325" font-family="Arial" font-weight="normal" font-style="normal" text-decoration="none" family="Arial" text-anchor="middle" size="13">请求头携带</text><text id="ProcessOnText1117" fill="#323232" font-size="13" x="48.5" y="29.575" font-family="Arial" font-weight="normal" font-style="normal" text-decoration="none" family="Arial" text-anchor="middle" size="13">If-Modified-Since</text></g></g><g id="ProcessOnG1118"><path id="ProcessOnPath1119" d="M1118.5 224.25L1144.5 224.25L1144.5 447.7639320225002" stroke="#323232" stroke-width="2.0" stroke-dasharray="none" fill="none" marker-end="url(#ProcessOnMarker1120)"/></g><g id="ProcessOnG1122" transform="matrix(1.0,0.0,0.0,1.0,1084.0,463.0)" opacity="1.0"><path id="ProcessOnPath1123" d="M0.0 39.0L60.5 0.0L121.0 39.0L60.5 78.0L0.0 39.0Z" stroke="#323232" stroke-width="2.0" stroke-dasharray="none" fill="#ffffed"/><g id="ProcessOnG1124" transform="matrix(1.0,0.0,0.0,1.0,10.0,22.75)"><text id="ProcessOnText1125" fill="#323232" font-size="13" x="49.5" y="13.325" font-family="Arial" font-weight="normal" font-style="normal" text-decoration="none" family="Arial" text-anchor="middle" size="13">服务器决策</text><text id="ProcessOnText1126" fill="#323232" font-size="13" x="49.5" y="29.575" font-family="Arial" font-weight="normal" font-style="normal" text-decoration="none" family="Arial" text-anchor="middle" size="13">200还是304?</text></g></g><g id="ProcessOnG1127"><path id="ProcessOnPath1128" d="M1144.5 541.0L1144.5 576.34375L1144.5 576.34375L1144.5 596.4514320225002" stroke="#323232" stroke-width="2.0" stroke-dasharray="none" fill="none" marker-end="url(#ProcessOnMarker1129)"/><g id="ProcessOnG1131" transform="matrix(1.0,0.0,0.0,1.0,1144.5,560.6007160112501)"><path id="ProcessOnPath1132" d="M0 0H91.0V16.25H0Z" fill="#fff" transform="matrix(1.0,0.0,0.0,1.0,-45.5,0.0)"/><text id="ProcessOnText1133" fill="#323232" font-size="13" x="0.0" y="13.325" font-family="Arial" font-weight="normal" font-style="normal" text-decoration="none" family="Arial" text-anchor="middle" size="13">文档无更新返回304</text></g></g><g id="ProcessOnG1134" transform="matrix(1.0,0.0,0.0,1.0,1094.5,611.6875)" opacity="1.0"><path id="ProcessOnPath1135" d="M0.0 0.0L100.0 0.0L100.0 34.0L0.0 34.0Z" stroke="#323232" stroke-width="2.0" stroke-dasharray="none" fill="#ffffed"/><g id="ProcessOnG1136" transform="matrix(1.0,0.0,0.0,1.0,10.0,8.875)"><text id="ProcessOnText1137" fill="#323232" font-size="13" x="39.0" y="13.325" font-family="Arial" font-weight="normal" font-style="normal" text-decoration="none" family="Arial" text-anchor="middle" size="13">从缓存中读取</text></g></g><g id="ProcessOnG1138"><path id="ProcessOnPath1139" d="M1084.0 502.0L995.875 502.0L995.875 628.6875L922.9860679774998 628.6875" stroke="#323232" stroke-width="2.0" stroke-dasharray="none" fill="none" marker-end="url(#ProcessOnMarker1140)"/><g id="ProcessOnG1142" transform="matrix(1.0,0.0,0.0,1.0,995.875,549.6007160112501)"><path id="ProcessOnPath1143" d="M0 0H91.0V16.25H0Z" fill="#fff" transform="matrix(1.0,0.0,0.0,1.0,-45.5,0.0)"/><text id="ProcessOnText1144" fill="#323232" font-size="13" x="0.0" y="13.325" font-family="Arial" font-weight="normal" font-style="normal" text-decoration="none" family="Arial" text-anchor="middle" size="13">文档有更新返回200</text></g></g><g id="ProcessOnG1145"><path id="ProcessOnPath1146" d="M1094.5 628.6875L1039.75 628.6875L1039.75 628.6875L985.0 628.6875" stroke="#323232" stroke-width="2.0" stroke-dasharray="none" fill="none"/></g><g id="ProcessOnG1147"><path id="ProcessOnPath1148" d="M1144.5 645.6875L1144.5 763.5L922.4860679774998 763.5" stroke="#323232" stroke-width="2.0" stroke-dasharray="none" fill="none" marker-end="url(#ProcessOnMarker1149)"/></g><g id="ProcessOnG1151" transform="matrix(1.0,0.0,0.0,1.0,568.0,515.375)" opacity="1.0"><path id="ProcessOnPath1152" d="M0.0 208.875L0.0 0.0L213.0 0.0L213.0 208.875Q159.75 173.375 106.5 208.875Q53.25 244.375 0.0 208.875Z" stroke="#323232" stroke-width="1.0" stroke-dasharray="5.0 2.0" fill="#ffffed"/><g id="ProcessOnG1153" transform="matrix(1.0,0.0,0.0,1.0,0.0,12.606250000000003)"><text id="ProcessOnText1154" fill="#5c5c5c" font-size="13" x="0.0" y="13.325" font-family="宋体" font-weight="normal" font-style="normal" text-decoration="none" family="宋体" text-anchor="start" size="13">　1. 是否缓存</text><text id="ProcessOnText1155" fill="#5c5c5c" font-size="13" x="0.0" y="29.575" font-family="宋体" font-weight="normal" font-style="normal" text-decoration="none" family="宋体" text-anchor="start" size="13">　(Cache-Control:no-store);</text><text id="ProcessOnText1156" fill="#5c5c5c" font-size="13" x="0.0" y="45.825" font-family="宋体" font-weight="normal" font-style="normal" text-decoration="none" family="宋体" text-anchor="start" size="13">　2. 缓存方式确定</text><text id="ProcessOnText1157" fill="#5c5c5c" font-size="13" x="0.0" y="62.075" font-family="宋体" font-weight="normal" font-style="normal" text-decoration="none" family="宋体" text-anchor="start" size="13">　(强缓存？启发式缓存？);</text><text id="ProcessOnText1158" fill="#5c5c5c" font-size="13" x="0.0" y="78.325" font-family="宋体" font-weight="normal" font-style="normal" text-decoration="none" family="宋体" text-anchor="start" size="13">　3. 缓存时间</text><text id="ProcessOnText1159" fill="#5c5c5c" font-size="13" x="0.0" y="94.575" font-family="宋体" font-weight="normal" font-style="normal" text-decoration="none" family="宋体" text-anchor="start" size="13">　(Expires，max-age等);</text><text id="ProcessOnText1160" fill="#5c5c5c" font-size="13" x="0.0" y="110.825" font-family="宋体" font-weight="normal" font-style="normal" text-decoration="none" family="宋体" text-anchor="start" size="13">　 4. 字段确认</text><text id="ProcessOnText1161" fill="#5c5c5c" font-size="13" x="0.0" y="127.075" font-family="宋体" font-weight="normal" font-style="normal" text-decoration="none" family="宋体" text-anchor="start" size="13">　ETag，Last-Modified</text><text id="ProcessOnText1162" fill="#5c5c5c" font-size="13" x="0.0" y="143.325" font-family="宋体" font-weight="normal" font-style="normal" text-decoration="none" family="宋体" text-anchor="start" size="13">　...等等</text><text id="ProcessOnText1163" fill="#5c5c5c" font-size="13" x="0.0" y="159.575" font-family="宋体" font-weight="normal" font-style="normal" text-decoration="none" family="宋体" text-anchor="start" size="13"></text><text id="ProcessOnText1164" fill="#5c5c5c" font-size="13" x="0.0" y="175.825" font-family="宋体" font-weight="normal" font-style="normal" text-decoration="none" family="宋体" text-anchor="start" size="13"></text></g></g><g id="ProcessOnG1165"><path id="ProcessOnPath1166" d="M781.0 628.6875L791.125 628.6875L791.125 628.6875L801.25 628.6875" stroke="#323232" stroke-width="2.0" stroke-dasharray="none" fill="none"/></g><g id="ProcessOnG1167"><path id="ProcessOnPath1168" d="M611.0 351.75L540.0 351.75L540.0 763.5L786.5139320225002 763.5" stroke="#323232" stroke-width="2.0" stroke-dasharray="none" fill="none" marker-end="url(#ProcessOnMarker1169)"/></g><g id="ProcessOnG1171"><path id="ProcessOnPath1172" d="M1118.5 351.75L1130.75 351.75L1130.75 351.75L1143.0 351.75" stroke="#323232" stroke-width="2.0" stroke-dasharray="none" fill="none"/></g></g></g></svg>